<svg width="191" height="34" viewBox="0 0 191 34" fill="none" xmlns="http://www.w3.org/2000/svg">
<rect width="6" height="33" rx="3" fill="#635FC7"/>
<rect x="10" width="6" height="33" rx="3" fill="#5552A3"/>
<rect x="20" width="6" height="33" rx="3" fill="#47467F"/>
<path d="M36 32.551V0.515999H42.665V16.555L40.816 15.91L53.63 0.515999H61.972L49.287 15.824L49.674 11.094L62.23 32.551H54.447L46.621 19.006L42.665 23.779V32.551H36Z" fill="white"/>
<path d="M71.8946 33.067C70.2033 33.067 68.7413 32.7947 67.5086 32.25C66.2759 31.7053 65.3299 30.9313 64.6706 29.928C64.0113 28.896 63.6816 27.6777 63.6816 26.273C63.6816 24.9543 63.9826 23.7933 64.5846 22.79C65.1866 21.758 66.1039 20.898 67.3366 20.21C68.5979 19.522 70.1603 19.0347 72.0236 18.748L79.2046 17.587V22.317L73.1846 23.392C72.2673 23.564 71.5649 23.865 71.0776 24.295C70.5903 24.6963 70.3466 25.284 70.3466 26.058C70.3466 26.7747 70.6189 27.3337 71.1636 27.735C71.7083 28.1363 72.3819 28.337 73.1846 28.337C74.2453 28.337 75.1769 28.1077 75.9796 27.649C76.7823 27.1903 77.3986 26.574 77.8286 25.8C78.2873 24.9973 78.5166 24.123 78.5166 23.177V17.071C78.5166 16.1823 78.1583 15.437 77.4416 14.835C76.7536 14.233 75.8076 13.932 74.6036 13.932C73.4569 13.932 72.4393 14.2473 71.5506 14.878C70.6906 15.5087 70.0599 16.34 69.6586 17.372L64.4986 14.921C64.9573 13.6023 65.6883 12.47 66.6916 11.524C67.6949 10.578 68.8989 9.847 70.3036 9.331C71.7083 8.815 73.2419 8.557 74.9046 8.557C76.8826 8.557 78.6313 8.91533 80.1506 9.632C81.6699 10.3487 82.8453 11.352 83.6766 12.642C84.5366 13.9033 84.9666 15.3797 84.9666 17.071V32.551H78.9466V28.767L80.4086 28.509C79.7206 29.541 78.9609 30.401 78.1296 31.089C77.2983 31.7483 76.3666 32.2357 75.3346 32.551C74.3026 32.895 73.1559 33.067 71.8946 33.067Z" fill="white"/>
<path d="M89.6969 32.551V9.073H95.7169V13.717L95.3729 12.685C95.9176 11.2803 96.7919 10.2483 97.9959 9.589C99.2286 8.901 100.662 8.557 102.296 8.557C104.073 8.557 105.621 8.92967 106.94 9.675C108.287 10.4203 109.334 11.4667 110.079 12.814C110.824 14.1327 111.197 15.6807 111.197 17.458V32.551H104.747V18.834C104.747 17.9167 104.561 17.1283 104.188 16.469C103.844 15.8097 103.342 15.2937 102.683 14.921C102.052 14.5483 101.307 14.362 100.447 14.362C99.6156 14.362 98.8703 14.5483 98.2109 14.921C97.5516 15.2937 97.0356 15.8097 96.6629 16.469C96.3189 17.1283 96.1469 17.9167 96.1469 18.834V32.551H89.6969Z" fill="white"/>
<path d="M128.596 33.067C126.991 33.067 125.5 32.7803 124.124 32.207C122.777 31.605 121.687 30.7307 120.856 29.584L121.458 28.251V32.551H115.438V0H121.888V13.545L120.899 12.255C121.673 11.0797 122.719 10.1767 124.038 9.546C125.385 8.88667 126.919 8.557 128.639 8.557C130.875 8.557 132.896 9.10167 134.702 10.191C136.508 11.2803 137.941 12.7567 139.002 14.62C140.063 16.4547 140.593 18.5187 140.593 20.812C140.593 23.0767 140.063 25.1407 139.002 27.004C137.97 28.8673 136.551 30.3437 134.745 31.433C132.939 32.5223 130.889 33.067 128.596 33.067ZM127.822 27.262C129.026 27.262 130.087 26.9897 131.004 26.445C131.921 25.9003 132.638 25.1407 133.154 24.166C133.67 23.1913 133.928 22.0733 133.928 20.812C133.928 19.5507 133.67 18.447 133.154 17.501C132.638 16.5263 131.921 15.7667 131.004 15.222C130.087 14.6487 129.026 14.362 127.822 14.362C126.675 14.362 125.643 14.6343 124.726 15.179C123.837 15.7237 123.135 16.4833 122.619 17.458C122.132 18.4327 121.888 19.5507 121.888 20.812C121.888 22.0733 122.132 23.1913 122.619 24.166C123.135 25.1407 123.837 25.9003 124.726 26.445C125.643 26.9897 126.675 27.262 127.822 27.262Z" fill="white"/>
<path d="M151.638 33.067C149.946 33.067 148.484 32.7947 147.252 32.25C146.019 31.7053 145.073 30.9313 144.414 29.928C143.754 28.896 143.425 27.6777 143.425 26.273C143.425 24.9543 143.726 23.7933 144.328 22.79C144.93 21.758 145.847 20.898 147.08 20.21C148.341 19.522 149.903 19.0347 151.767 18.748L158.948 17.587V22.317L152.928 23.392C152.01 23.564 151.308 23.865 150.821 24.295C150.333 24.6963 150.09 25.284 150.09 26.058C150.09 26.7747 150.362 27.3337 150.907 27.735C151.451 28.1363 152.125 28.337 152.928 28.337C153.988 28.337 154.92 28.1077 155.723 27.649C156.525 27.1903 157.142 26.574 157.572 25.8C158.03 24.9973 158.26 24.123 158.26 23.177V17.071C158.26 16.1823 157.901 15.437 157.185 14.835C156.497 14.233 155.551 13.932 154.347 13.932C153.2 13.932 152.182 14.2473 151.294 14.878C150.434 15.5087 149.803 16.34 149.402 17.372L144.242 14.921C144.7 13.6023 145.431 12.47 146.435 11.524C147.438 10.578 148.642 9.847 150.047 9.331C151.451 8.815 152.985 8.557 154.648 8.557C156.626 8.557 158.374 8.91533 159.894 9.632C161.413 10.3487 162.588 11.352 163.42 12.642C164.28 13.9033 164.71 15.3797 164.71 17.071V32.551H158.69V28.767L160.152 28.509C159.464 29.541 158.704 30.401 157.873 31.089C157.041 31.7483 156.11 32.2357 155.078 32.551C154.046 32.895 152.899 33.067 151.638 33.067Z" fill="white"/>
<path d="M169.44 32.551V9.073H175.46V13.717L175.116 12.685C175.661 11.2803 176.535 10.2483 177.739 9.589C178.972 8.901 180.405 8.557 182.039 8.557C183.816 8.557 185.364 8.92967 186.683 9.675C188.03 10.4203 189.077 11.4667 189.822 12.814C190.567 14.1327 190.94 15.6807 190.94 17.458V32.551H184.49V18.834C184.49 17.9167 184.304 17.1283 183.931 16.469C183.587 15.8097 183.085 15.2937 182.426 14.921C181.795 14.5483 181.05 14.362 180.19 14.362C179.359 14.362 178.613 14.5483 177.954 14.921C177.295 15.2937 176.779 15.8097 176.406 16.469C176.062 17.1283 175.89 17.9167 175.89 18.834V32.551H169.44Z" fill="white"/>
</svg>
