<svg width="1120" height="337" viewBox="0 0 1120 337" fill="none" xmlns="http://www.w3.org/2000/svg">
<path fill-rule="evenodd" clip-rule="evenodd" d="M0 89.4564C0 40.051 40.051 0 89.4564 0H197.955V336.569H89.4564C40.051 336.569 0 296.518 0 247.112V89.4564ZM213.898 168.284V0H247.112C296.518 0 336.569 40.051 336.569 89.4564V168.284H213.898ZM213.898 184.227V336.569H247.112C296.518 336.569 336.569 296.518 336.569 247.112V184.227H213.898Z" fill="#635FC7"/>
<path d="M415 206.276V128.454H429.024V164.211H429.969L460.172 128.454H477.296L447.358 163.375L477.561 206.276H460.702L437.605 172.913L429.024 183.097V206.276H415Z" fill="black"/>
<path d="M503.143 207.454C499.463 207.454 496.15 206.795 493.201 205.478C490.278 204.136 487.959 202.16 486.246 199.55C484.557 196.941 483.713 193.724 483.713 189.899C483.713 186.605 484.318 183.882 485.527 181.729C486.737 179.575 488.388 177.853 490.479 176.561C492.571 175.269 494.927 174.294 497.548 173.635C500.194 172.951 502.929 172.457 505.751 172.153C509.153 171.798 511.913 171.482 514.029 171.203C516.146 170.899 517.684 170.443 518.641 169.835C519.624 169.202 520.115 168.226 520.115 166.909V166.681C520.115 163.819 519.271 161.602 517.583 160.031C515.894 158.461 513.462 157.675 510.287 157.675C506.935 157.675 504.277 158.41 502.311 159.879C500.371 161.349 499.06 163.084 498.38 165.085L485.603 163.261C486.611 159.715 488.274 156.751 490.593 154.369C492.911 151.963 495.746 150.164 499.098 148.974C502.45 147.758 506.154 147.15 510.212 147.15C513.009 147.15 515.793 147.479 518.566 148.138C521.338 148.796 523.87 149.886 526.164 151.406C528.457 152.9 530.297 154.939 531.683 157.523C533.094 160.107 533.799 163.337 533.799 167.213V206.276H520.645V198.258H520.191C519.359 199.88 518.188 201.4 516.676 202.818C515.189 204.212 513.311 205.339 511.043 206.2C508.8 207.036 506.167 207.454 503.143 207.454ZM506.696 197.346C509.443 197.346 511.824 196.802 513.84 195.712C515.856 194.598 517.406 193.128 518.49 191.305C519.599 189.481 520.153 187.492 520.153 185.339V178.461C519.725 178.815 518.994 179.145 517.961 179.449C516.953 179.753 515.819 180.019 514.559 180.247C513.299 180.475 512.051 180.677 510.816 180.855C509.582 181.032 508.51 181.184 507.603 181.311C505.562 181.589 503.735 182.045 502.122 182.679C500.509 183.312 499.237 184.199 498.304 185.339C497.372 186.453 496.906 187.897 496.906 189.671C496.906 192.204 497.825 194.116 499.665 195.408C501.505 196.7 503.848 197.346 506.696 197.346Z" fill="black"/>
<path d="M561.243 172.077V206.276H547.559V147.91H560.638V157.827H561.319C562.654 154.559 564.784 151.963 567.707 150.038C570.655 148.112 574.297 147.15 578.632 147.15C582.638 147.15 586.129 148.011 589.102 149.734C592.101 151.456 594.42 153.951 596.058 157.219C597.721 160.487 598.54 164.452 598.515 169.113V206.276H584.831V171.241C584.831 167.34 583.823 164.287 581.807 162.083C579.816 159.879 577.056 158.777 573.528 158.777C571.134 158.777 569.005 159.309 567.14 160.373C565.3 161.412 563.851 162.919 562.793 164.895C561.76 166.871 561.243 169.265 561.243 172.077Z" fill="black"/>
<path d="M613.031 206.276V128.454H626.715V157.561H627.282C627.987 156.143 628.983 154.635 630.268 153.039C631.553 151.418 633.292 150.038 635.484 148.898C637.677 147.732 640.474 147.15 643.876 147.15C648.362 147.15 652.407 148.302 656.01 150.608C659.639 152.887 662.512 156.269 664.629 160.753C666.771 165.212 667.842 170.684 667.842 177.169C667.842 183.578 666.796 189.025 664.705 193.508C662.613 197.992 659.765 201.412 656.162 203.768C652.558 206.124 648.475 207.302 643.914 207.302C640.588 207.302 637.828 206.745 635.636 205.63C633.443 204.516 631.679 203.173 630.343 201.602C629.033 200.006 628.012 198.499 627.282 197.08H626.488V206.276H613.031ZM626.45 177.093C626.45 180.867 626.979 184.173 628.038 187.011C629.121 189.848 630.671 192.064 632.687 193.66C634.728 195.231 637.198 196.016 640.096 196.016C643.12 196.016 645.653 195.206 647.694 193.584C649.735 191.938 651.273 189.696 652.306 186.859C653.364 183.996 653.894 180.741 653.894 177.093C653.894 173.47 653.377 170.253 652.344 167.441C651.31 164.629 649.773 162.425 647.732 160.829C645.691 159.233 643.145 158.435 640.096 158.435C637.173 158.435 634.691 159.208 632.649 160.753C630.608 162.299 629.058 164.465 628 167.251C626.967 170.038 626.45 173.318 626.45 177.093Z" fill="black"/>
<path d="M696.183 207.454C692.504 207.454 689.19 206.795 686.242 205.478C683.319 204.136 681 202.16 679.286 199.55C677.598 196.941 676.754 193.724 676.754 189.899C676.754 186.605 677.359 183.882 678.568 181.729C679.778 179.575 681.428 177.853 683.52 176.561C685.612 175.269 687.968 174.294 690.589 173.635C693.235 172.951 695.969 172.457 698.792 172.153C702.194 171.798 704.953 171.482 707.07 171.203C709.187 170.899 710.724 170.443 711.682 169.835C712.665 169.202 713.156 168.226 713.156 166.909V166.681C713.156 163.819 712.312 161.602 710.624 160.031C708.935 158.461 706.503 157.675 703.328 157.675C699.976 157.675 697.318 158.41 695.352 159.879C693.411 161.349 692.101 163.084 691.421 165.085L678.644 163.261C679.652 159.715 681.315 156.751 683.634 154.369C685.952 151.963 688.787 150.164 692.139 148.974C695.49 147.758 699.195 147.15 703.252 147.15C706.05 147.15 708.834 147.479 711.606 148.138C714.378 148.796 716.911 149.886 719.204 151.406C721.498 152.9 723.337 154.939 724.723 157.523C726.135 160.107 726.84 163.337 726.84 167.213V206.276H713.685V198.258H713.232C712.4 199.88 711.228 201.4 709.716 202.818C708.229 204.212 706.352 205.339 704.084 206.2C701.841 207.036 699.208 207.454 696.183 207.454ZM699.737 197.346C702.484 197.346 704.865 196.802 706.881 195.712C708.897 194.598 710.447 193.128 711.531 191.305C712.64 189.481 713.194 187.492 713.194 185.339V178.461C712.766 178.815 712.035 179.145 711.002 179.449C709.994 179.753 708.859 180.019 707.599 180.247C706.339 180.475 705.092 180.677 703.857 180.855C702.622 181.032 701.551 181.184 700.644 181.311C698.603 181.589 696.776 182.045 695.163 182.679C693.55 183.312 692.277 184.199 691.345 185.339C690.413 186.453 689.946 187.897 689.946 189.671C689.946 192.204 690.866 194.116 692.706 195.408C694.545 196.7 696.889 197.346 699.737 197.346Z" fill="black"/>
<path d="M754.284 172.077V206.276H740.6V147.91H753.679V157.827H754.359C755.695 154.559 757.824 151.963 760.748 150.038C763.696 148.112 767.338 147.15 771.672 147.15C775.679 147.15 779.17 148.011 782.143 149.734C785.142 151.456 787.461 153.951 789.099 157.219C790.762 160.487 791.581 164.452 791.556 169.113V206.276H777.872V171.241C777.872 167.34 776.864 164.287 774.848 162.083C772.857 159.879 770.097 158.777 766.569 158.777C764.175 158.777 762.046 159.309 760.181 160.373C758.341 161.412 756.892 162.919 755.834 164.895C754.8 166.871 754.284 169.265 754.284 172.077Z" fill="black"/>
<path d="M832.475 206.276V128.454H862.111C867.706 128.454 872.356 129.341 876.06 131.114C879.79 132.862 882.574 135.256 884.414 138.296C886.279 141.336 887.211 144.781 887.211 148.632C887.211 151.798 886.607 154.509 885.397 156.763C884.187 158.993 882.562 160.804 880.521 162.197C878.479 163.591 876.199 164.591 873.679 165.199V165.959C876.425 166.111 879.059 166.96 881.579 168.505C884.124 170.025 886.203 172.178 887.816 174.965C889.429 177.752 890.235 181.121 890.235 185.073C890.235 189.101 889.265 192.723 887.325 195.94C885.384 199.132 882.461 201.653 878.555 203.502C874.649 205.351 869.735 206.276 863.812 206.276H832.475ZM846.5 194.496H861.582C866.673 194.496 870.339 193.521 872.582 191.571C874.85 189.595 875.984 187.061 875.984 183.971C875.984 181.665 875.417 179.588 874.283 177.739C873.149 175.864 871.537 174.395 869.445 173.331C867.353 172.242 864.858 171.697 861.96 171.697H846.5V194.496ZM846.5 161.551H860.373C862.792 161.551 864.972 161.108 866.912 160.221C868.853 159.309 870.377 158.03 871.486 156.383C872.62 154.711 873.187 152.735 873.187 150.456C873.187 147.441 872.129 144.958 870.012 143.008C867.92 141.057 864.808 140.082 860.675 140.082H846.5V161.551Z" fill="black"/>
<path d="M927.158 207.416C921.488 207.416 916.573 206.162 912.415 203.654C908.257 201.146 905.031 197.638 902.738 193.128C900.47 188.619 899.336 183.35 899.336 177.321C899.336 171.292 900.47 166.01 902.738 161.475C905.031 156.941 908.257 153.419 912.415 150.912C916.573 148.404 921.488 147.15 927.158 147.15C932.828 147.15 937.742 148.404 941.9 150.912C946.058 153.419 949.271 156.941 951.539 161.475C953.833 166.01 954.979 171.292 954.979 177.321C954.979 183.35 953.833 188.619 951.539 193.128C949.271 197.638 946.058 201.146 941.9 203.654C937.742 206.162 932.828 207.416 927.158 207.416ZM927.233 196.396C930.308 196.396 932.878 195.548 934.945 193.85C937.011 192.128 938.548 189.823 939.556 186.935C940.59 184.047 941.106 180.829 941.106 177.283C941.106 173.711 940.59 170.481 939.556 167.593C938.548 164.68 937.011 162.362 934.945 160.639C932.878 158.917 930.308 158.055 927.233 158.055C924.083 158.055 921.462 158.917 919.371 160.639C917.304 162.362 915.754 164.68 914.721 167.593C913.713 170.481 913.209 173.711 913.209 177.283C913.209 180.829 913.713 184.047 914.721 186.935C915.754 189.823 917.304 192.128 919.371 193.85C921.462 195.548 924.083 196.396 927.233 196.396Z" fill="black"/>
<path d="M983.302 207.454C979.622 207.454 976.309 206.795 973.36 205.478C970.437 204.136 968.118 202.16 966.405 199.55C964.716 196.941 963.872 193.724 963.872 189.899C963.872 186.605 964.477 183.882 965.686 181.729C966.896 179.575 968.547 177.853 970.638 176.561C972.73 175.269 975.086 174.294 977.707 173.635C980.353 172.951 983.088 172.457 985.91 172.153C989.312 171.798 992.072 171.482 994.188 171.203C996.305 170.899 997.843 170.443 998.8 169.835C999.783 169.202 1000.27 168.226 1000.27 166.909V166.681C1000.27 163.819 999.43 161.602 997.742 160.031C996.053 158.461 993.621 157.675 990.446 157.675C987.094 157.675 984.436 158.41 982.47 159.879C980.53 161.349 979.219 163.084 978.539 165.085L965.762 163.261C966.77 159.715 968.433 156.751 970.752 154.369C973.07 151.963 975.905 150.164 979.257 148.974C982.609 147.758 986.313 147.15 990.371 147.15C993.168 147.15 995.953 147.479 998.725 148.138C1001.5 148.796 1004.03 149.886 1006.32 151.406C1008.62 152.9 1010.46 154.939 1011.84 157.523C1013.25 160.107 1013.96 163.337 1013.96 167.213V206.276H1000.8V198.258H1000.35C999.518 199.88 998.347 201.4 996.835 202.818C995.348 204.212 993.47 205.339 991.202 206.2C988.959 207.036 986.326 207.454 983.302 207.454ZM986.855 197.346C989.602 197.346 991.983 196.802 993.999 195.712C996.016 194.598 997.565 193.128 998.649 191.305C999.758 189.481 1000.31 187.492 1000.31 185.339V178.461C999.884 178.815 999.153 179.145 998.12 179.449C997.112 179.753 995.978 180.019 994.718 180.247C993.458 180.475 992.21 180.677 990.975 180.855C989.741 181.032 988.67 181.184 987.762 181.311C985.721 181.589 983.894 182.045 982.281 182.679C980.668 183.312 979.396 184.199 978.463 185.339C977.531 186.453 977.065 187.897 977.065 189.671C977.065 192.204 977.984 194.116 979.824 195.408C981.664 196.7 984.007 197.346 986.855 197.346Z" fill="black"/>
<path d="M1027.72 206.276V147.91H1040.99V157.637H1041.59C1042.65 154.268 1044.46 151.672 1047.03 149.848C1049.63 147.998 1052.59 147.074 1055.92 147.074C1056.67 147.074 1057.52 147.112 1058.45 147.188C1059.41 147.238 1060.2 147.327 1060.83 147.454V160.107C1060.25 159.905 1059.33 159.727 1058.07 159.575C1056.84 159.398 1055.64 159.309 1054.48 159.309C1051.99 159.309 1049.74 159.854 1047.75 160.943C1045.79 162.007 1044.24 163.489 1043.1 165.389C1041.97 167.289 1041.4 169.48 1041.4 171.963V206.276H1027.72Z" fill="black"/>
<path d="M1089.08 207.302C1084.52 207.302 1080.43 206.124 1076.83 203.768C1073.23 201.412 1070.38 197.992 1068.29 193.508C1066.2 189.025 1065.15 183.578 1065.15 177.169C1065.15 170.684 1066.21 165.212 1068.33 160.753C1070.47 156.269 1073.35 152.887 1076.98 150.608C1080.61 148.302 1084.66 147.15 1089.12 147.15C1092.52 147.15 1095.32 147.732 1097.51 148.898C1099.7 150.038 1101.44 151.418 1102.72 153.039C1104.01 154.635 1105.01 156.143 1105.71 157.561H1106.28V128.454H1120V206.276H1106.54V197.08H1105.71C1105.01 198.499 1103.98 200.006 1102.65 201.602C1101.31 203.173 1099.55 204.516 1097.36 205.63C1095.16 206.745 1092.41 207.302 1089.08 207.302ZM1092.9 196.016C1095.79 196.016 1098.26 195.231 1100.31 193.66C1102.35 192.064 1103.9 189.848 1104.96 187.011C1106.01 184.173 1106.54 180.867 1106.54 177.093C1106.54 173.318 1106.01 170.038 1104.96 167.251C1103.92 164.465 1102.38 162.299 1100.34 160.753C1098.33 159.208 1095.85 158.435 1092.9 158.435C1089.85 158.435 1087.3 159.233 1085.26 160.829C1083.22 162.425 1081.68 164.629 1080.65 167.441C1079.62 170.253 1079.1 173.47 1079.1 177.093C1079.1 180.741 1079.62 183.996 1080.65 186.859C1081.71 189.696 1083.26 191.938 1085.3 193.584C1087.37 195.206 1089.9 196.016 1092.9 196.016Z" fill="black"/>
</svg>
