<svg width="1120" height="338" viewBox="0 0 1120 338" fill="none" xmlns="http://www.w3.org/2000/svg">
<path fill-rule="evenodd" clip-rule="evenodd" d="M0 90.0023C0 40.5969 40.051 0.545898 89.4564 0.545898H197.955V337.114H89.4564C40.051 337.114 0 297.063 0 247.658V90.0023ZM213.898 168.83V0.545898H247.112C296.518 0.545898 336.569 40.5969 336.569 90.0023V168.83H213.898ZM213.898 184.773V337.114H247.112C296.518 337.114 336.569 297.063 336.569 247.658V184.773H213.898Z" fill="#635FC7"/>
<path d="M415 206.822V129H429.024V164.757H429.969L460.172 129H477.296L447.358 163.921L477.561 206.822H460.702L437.605 173.459L429.024 183.643V206.822H415Z" fill="white"/>
<path d="M503.143 208C499.463 208 496.15 207.341 493.201 206.024C490.278 204.681 487.959 202.705 486.246 200.096C484.557 197.487 483.713 194.27 483.713 190.444C483.713 187.151 484.318 184.428 485.527 182.275C486.737 180.121 488.388 178.399 490.479 177.107C492.571 175.815 494.927 174.84 497.548 174.181C500.194 173.497 502.929 173.003 505.751 172.699C509.153 172.344 511.913 172.028 514.029 171.749C516.146 171.445 517.684 170.989 518.641 170.381C519.624 169.748 520.115 168.772 520.115 167.455V167.227C520.115 164.364 519.271 162.148 517.583 160.577C515.894 159.007 513.462 158.221 510.287 158.221C506.935 158.221 504.277 158.956 502.311 160.425C500.371 161.894 499.06 163.63 498.38 165.631L485.603 163.807C486.611 160.261 488.274 157.297 490.593 154.915C492.911 152.509 495.746 150.71 499.098 149.519C502.45 148.304 506.154 147.696 510.212 147.696C513.009 147.696 515.793 148.025 518.566 148.683C521.338 149.342 523.87 150.431 526.164 151.951C528.457 153.446 530.297 155.485 531.683 158.069C533.094 160.653 533.799 163.883 533.799 167.759V206.822H520.645V198.804H520.191C519.359 200.426 518.188 201.945 516.676 203.364C515.189 204.757 513.311 205.885 511.043 206.746C508.8 207.582 506.167 208 503.143 208ZM506.696 197.892C509.443 197.892 511.824 197.348 513.84 196.258C515.856 195.144 517.406 193.674 518.49 191.85C519.599 190.026 520.153 188.038 520.153 185.885V179.007C519.725 179.361 518.994 179.691 517.961 179.995C516.953 180.299 515.819 180.565 514.559 180.793C513.299 181.021 512.051 181.223 510.816 181.401C509.582 181.578 508.51 181.73 507.603 181.857C505.562 182.135 503.735 182.591 502.122 183.225C500.509 183.858 499.237 184.745 498.304 185.885C497.372 186.999 496.906 188.443 496.906 190.216C496.906 192.75 497.825 194.662 499.665 195.954C501.505 197.246 503.848 197.892 506.696 197.892Z" fill="white"/>
<path d="M561.243 172.623V206.822H547.559V148.456H560.638V158.373H561.319C562.654 155.105 564.784 152.509 567.707 150.583C570.655 148.658 574.297 147.696 578.632 147.696C582.638 147.696 586.129 148.557 589.102 150.279C592.101 152.002 594.42 154.497 596.058 157.765C597.721 161.033 598.54 164.998 598.515 169.659V206.822H584.831V171.787C584.831 167.886 583.823 164.833 581.807 162.629C579.816 160.425 577.056 159.323 573.528 159.323C571.134 159.323 569.005 159.855 567.14 160.919C565.3 161.958 563.851 163.465 562.793 165.441C561.76 167.417 561.243 169.811 561.243 172.623Z" fill="white"/>
<path d="M613.031 206.822V129H626.715V158.107H627.282C627.987 156.689 628.983 155.181 630.268 153.585C631.553 151.964 633.292 150.583 635.484 149.443C637.677 148.278 640.474 147.696 643.876 147.696C648.362 147.696 652.407 148.848 656.01 151.153C659.639 153.433 662.512 156.815 664.629 161.299C666.771 165.758 667.842 171.23 667.842 177.715C667.842 184.124 666.796 189.57 664.705 194.054C662.613 198.538 659.765 201.958 656.162 204.314C652.558 206.67 648.475 207.848 643.914 207.848C640.588 207.848 637.828 207.291 635.636 206.176C633.443 205.061 631.679 203.719 630.343 202.148C629.033 200.552 628.012 199.045 627.282 197.626H626.488V206.822H613.031ZM626.45 177.639C626.45 181.413 626.979 184.719 628.038 187.557C629.121 190.394 630.671 192.61 632.687 194.206C634.728 195.777 637.198 196.562 640.096 196.562C643.12 196.562 645.653 195.752 647.694 194.13C649.735 192.484 651.273 190.242 652.306 187.405C653.364 184.542 653.894 181.287 653.894 177.639C653.894 174.016 653.377 170.799 652.344 167.987C651.31 165.175 649.773 162.971 647.732 161.375C645.691 159.779 643.145 158.981 640.096 158.981C637.173 158.981 634.691 159.754 632.649 161.299C630.608 162.844 629.058 165.01 628 167.797C626.967 170.584 626.45 173.864 626.45 177.639Z" fill="white"/>
<path d="M696.183 208C692.504 208 689.19 207.341 686.242 206.024C683.319 204.681 681 202.705 679.286 200.096C677.598 197.487 676.754 194.27 676.754 190.444C676.754 187.151 677.359 184.428 678.568 182.275C679.778 180.121 681.428 178.399 683.52 177.107C685.612 175.815 687.968 174.84 690.589 174.181C693.235 173.497 695.969 173.003 698.792 172.699C702.194 172.344 704.953 172.028 707.07 171.749C709.187 171.445 710.724 170.989 711.682 170.381C712.665 169.748 713.156 168.772 713.156 167.455V167.227C713.156 164.364 712.312 162.148 710.624 160.577C708.935 159.007 706.503 158.221 703.328 158.221C699.976 158.221 697.318 158.956 695.352 160.425C693.411 161.894 692.101 163.63 691.421 165.631L678.644 163.807C679.652 160.261 681.315 157.297 683.634 154.915C685.952 152.509 688.787 150.71 692.139 149.519C695.49 148.304 699.195 147.696 703.252 147.696C706.05 147.696 708.834 148.025 711.606 148.683C714.378 149.342 716.911 150.431 719.204 151.951C721.498 153.446 723.337 155.485 724.723 158.069C726.135 160.653 726.84 163.883 726.84 167.759V206.822H713.685V198.804H713.232C712.4 200.426 711.228 201.945 709.716 203.364C708.229 204.757 706.352 205.885 704.084 206.746C701.841 207.582 699.208 208 696.183 208ZM699.737 197.892C702.484 197.892 704.865 197.348 706.881 196.258C708.897 195.144 710.447 193.674 711.531 191.85C712.64 190.026 713.194 188.038 713.194 185.885V179.007C712.766 179.361 712.035 179.691 711.002 179.995C709.994 180.299 708.859 180.565 707.599 180.793C706.339 181.021 705.092 181.223 703.857 181.401C702.622 181.578 701.551 181.73 700.644 181.857C698.603 182.135 696.776 182.591 695.163 183.225C693.55 183.858 692.277 184.745 691.345 185.885C690.413 186.999 689.946 188.443 689.946 190.216C689.946 192.75 690.866 194.662 692.706 195.954C694.545 197.246 696.889 197.892 699.737 197.892Z" fill="white"/>
<path d="M754.284 172.623V206.822H740.6V148.456H753.679V158.373H754.359C755.695 155.105 757.824 152.509 760.748 150.583C763.696 148.658 767.338 147.696 771.672 147.696C775.679 147.696 779.17 148.557 782.143 150.279C785.142 152.002 787.461 154.497 789.099 157.765C790.762 161.033 791.581 164.998 791.556 169.659V206.822H777.872V171.787C777.872 167.886 776.864 164.833 774.848 162.629C772.857 160.425 770.097 159.323 766.569 159.323C764.175 159.323 762.046 159.855 760.181 160.919C758.341 161.958 756.892 163.465 755.834 165.441C754.8 167.417 754.284 169.811 754.284 172.623Z" fill="white"/>
<path d="M832.475 206.822V129H862.111C867.706 129 872.356 129.887 876.06 131.66C879.79 133.408 882.574 135.802 884.414 138.842C886.279 141.882 887.211 145.327 887.211 149.177C887.211 152.344 886.607 155.055 885.397 157.309C884.187 159.539 882.562 161.35 880.521 162.743C878.479 164.136 876.199 165.137 873.679 165.745V166.505C876.425 166.657 879.059 167.506 881.579 169.051C884.124 170.571 886.203 172.724 887.816 175.511C889.429 178.297 890.235 181.667 890.235 185.619C890.235 189.646 889.265 193.269 887.325 196.486C885.384 199.678 882.461 202.199 878.555 204.048C874.649 205.897 869.735 206.822 863.812 206.822H832.475ZM846.5 195.042H861.582C866.673 195.042 870.339 194.067 872.582 192.116C874.85 190.14 875.984 187.607 875.984 184.517C875.984 182.211 875.417 180.134 874.283 178.285C873.149 176.41 871.537 174.941 869.445 173.877C867.353 172.788 864.858 172.243 861.96 172.243H846.5V195.042ZM846.5 162.097H860.373C862.792 162.097 864.972 161.654 866.912 160.767C868.853 159.855 870.377 158.576 871.486 156.929C872.62 155.257 873.187 153.281 873.187 151.001C873.187 147.987 872.129 145.504 870.012 143.554C867.92 141.603 864.808 140.628 860.675 140.628H846.5V162.097Z" fill="white"/>
<path d="M927.158 207.962C921.488 207.962 916.573 206.708 912.415 204.2C908.257 201.692 905.031 198.184 902.738 193.674C900.47 189.165 899.336 183.896 899.336 177.867C899.336 171.838 900.47 166.556 902.738 162.021C905.031 157.487 908.257 153.965 912.415 151.457C916.573 148.949 921.488 147.696 927.158 147.696C932.828 147.696 937.742 148.949 941.9 151.457C946.058 153.965 949.271 157.487 951.539 162.021C953.833 166.556 954.979 171.838 954.979 177.867C954.979 183.896 953.833 189.165 951.539 193.674C949.271 198.184 946.058 201.692 941.9 204.2C937.742 206.708 932.828 207.962 927.158 207.962ZM927.233 196.942C930.308 196.942 932.878 196.094 934.945 194.396C937.011 192.674 938.548 190.368 939.556 187.481C940.59 184.593 941.106 181.375 941.106 177.829C941.106 174.257 940.59 171.027 939.556 168.139C938.548 165.226 937.011 162.908 934.945 161.185C932.878 159.463 930.308 158.601 927.233 158.601C924.083 158.601 921.462 159.463 919.371 161.185C917.304 162.908 915.754 165.226 914.721 168.139C913.713 171.027 913.209 174.257 913.209 177.829C913.209 181.375 913.713 184.593 914.721 187.481C915.754 190.368 917.304 192.674 919.371 194.396C921.462 196.094 924.083 196.942 927.233 196.942Z" fill="white"/>
<path d="M983.302 208C979.622 208 976.309 207.341 973.36 206.024C970.437 204.681 968.118 202.705 966.405 200.096C964.716 197.487 963.872 194.27 963.872 190.444C963.872 187.151 964.477 184.428 965.686 182.275C966.896 180.121 968.547 178.399 970.638 177.107C972.73 175.815 975.086 174.84 977.707 174.181C980.353 173.497 983.088 173.003 985.91 172.699C989.312 172.344 992.072 172.028 994.188 171.749C996.305 171.445 997.843 170.989 998.8 170.381C999.783 169.748 1000.27 168.772 1000.27 167.455V167.227C1000.27 164.364 999.43 162.148 997.742 160.577C996.053 159.007 993.621 158.221 990.446 158.221C987.094 158.221 984.436 158.956 982.47 160.425C980.53 161.894 979.219 163.63 978.539 165.631L965.762 163.807C966.77 160.261 968.433 157.297 970.752 154.915C973.07 152.509 975.905 150.71 979.257 149.519C982.609 148.304 986.313 147.696 990.371 147.696C993.168 147.696 995.953 148.025 998.725 148.683C1001.5 149.342 1004.03 150.431 1006.32 151.951C1008.62 153.446 1010.46 155.485 1011.84 158.069C1013.25 160.653 1013.96 163.883 1013.96 167.759V206.822H1000.8V198.804H1000.35C999.518 200.426 998.347 201.945 996.835 203.364C995.348 204.757 993.47 205.885 991.202 206.746C988.959 207.582 986.326 208 983.302 208ZM986.855 197.892C989.602 197.892 991.983 197.348 993.999 196.258C996.016 195.144 997.565 193.674 998.649 191.85C999.758 190.026 1000.31 188.038 1000.31 185.885V179.007C999.884 179.361 999.153 179.691 998.12 179.995C997.112 180.299 995.978 180.565 994.718 180.793C993.458 181.021 992.21 181.223 990.975 181.401C989.741 181.578 988.67 181.73 987.762 181.857C985.721 182.135 983.894 182.591 982.281 183.225C980.668 183.858 979.396 184.745 978.463 185.885C977.531 186.999 977.065 188.443 977.065 190.216C977.065 192.75 977.984 194.662 979.824 195.954C981.664 197.246 984.007 197.892 986.855 197.892Z" fill="white"/>
<path d="M1027.72 206.822V148.456H1040.99V158.183H1041.59C1042.65 154.814 1044.46 152.217 1047.03 150.393C1049.63 148.544 1052.59 147.62 1055.92 147.62C1056.67 147.62 1057.52 147.658 1058.45 147.734C1059.41 147.784 1060.2 147.873 1060.83 148V160.653C1060.25 160.451 1059.33 160.273 1058.07 160.121C1056.84 159.944 1055.64 159.855 1054.48 159.855C1051.99 159.855 1049.74 160.4 1047.75 161.489C1045.79 162.553 1044.24 164.035 1043.1 165.935C1041.97 167.835 1041.4 170.026 1041.4 172.509V206.822H1027.72Z" fill="white"/>
<path d="M1089.08 207.848C1084.52 207.848 1080.43 206.67 1076.83 204.314C1073.23 201.958 1070.38 198.538 1068.29 194.054C1066.2 189.57 1065.15 184.124 1065.15 177.715C1065.15 171.23 1066.21 165.758 1068.33 161.299C1070.47 156.815 1073.35 153.433 1076.98 151.153C1080.61 148.848 1084.66 147.696 1089.12 147.696C1092.52 147.696 1095.32 148.278 1097.51 149.443C1099.7 150.583 1101.44 151.964 1102.72 153.585C1104.01 155.181 1105.01 156.689 1105.71 158.107H1106.28V129H1120V206.822H1106.54V197.626H1105.71C1105.01 199.045 1103.98 200.552 1102.65 202.148C1101.31 203.719 1099.55 205.061 1097.36 206.176C1095.16 207.291 1092.41 207.848 1089.08 207.848ZM1092.9 196.562C1095.79 196.562 1098.26 195.777 1100.31 194.206C1102.35 192.61 1103.9 190.394 1104.96 187.557C1106.01 184.719 1106.54 181.413 1106.54 177.639C1106.54 173.864 1106.01 170.584 1104.96 167.797C1103.92 165.01 1102.38 162.844 1100.34 161.299C1098.33 159.754 1095.85 158.981 1092.9 158.981C1089.85 158.981 1087.3 159.779 1085.26 161.375C1083.22 162.971 1081.68 165.175 1080.65 167.987C1079.62 170.799 1079.1 174.016 1079.1 177.639C1079.1 181.287 1079.62 184.542 1080.65 187.405C1081.71 190.242 1083.26 192.484 1085.3 194.13C1087.37 195.752 1089.9 196.562 1092.9 196.562Z" fill="white"/>
</svg>
